<svg width="24" height="24" viewBox="0 0 24 24" fill="none" xmlns="http://www.w3.org/2000/svg">
<g clip-path="url(#clip0_11_210)">
<mask id="mask0_11_210" style="mask-type:alpha" maskUnits="userSpaceOnUse" x="0" y="2" width="25" height="21">
<path d="M8.59766 8.71639C8.59766 10.0971 7.52314 11.2164 6.19766 11.2164C4.87218 11.2164 3.79766 10.0971 3.79766 8.71639C3.79766 7.33568 4.87218 6.2164 6.19766 6.2164C7.52314 6.2164 8.59766 7.33568 8.59766 8.71639Z" fill="#006FFD"/>
<path fill-rule="evenodd" clip-rule="evenodd" d="M0.000976562 4.50029C0.000976562 3.11958 1.07549 2.00029 2.40098 2.00029H21.601C22.9265 2.00029 24.001 3.11958 24.001 4.50029V19.5003C24.001 20.881 22.9265 22.0003 21.601 22.0003H20.0168C20.0115 22.0003 20.0062 22.0003 20.001 22.0003H2.94795C2.94343 22.0003 2.93892 22.0003 2.9344 22.0003H2.40098C1.07549 22.0003 0.000976562 20.881 0.000976562 19.5003V4.50029ZM2.40098 3.87529H21.601C21.9323 3.87529 22.201 4.15511 22.201 4.50029V12.2904L16.9866 7.00031L8.11558 16.0003L5.5024 13.3491L1.80098 17.1044V4.50029C1.80098 4.15511 2.06961 3.87529 2.40098 3.87529Z" fill="#006FFD"/>
</mask>
<g mask="url(#mask0_11_210)">
<rect y="-0.000549316" width="24" height="24" fill="#006FFD"/>
</g>
</g>
<defs>
<clipPath id="clip0_11_210">
<rect width="24.0009" height="24.0006" fill="white"/>
</clipPath>
</defs>
</svg>
