<svg width="26" height="26" viewBox="0 0 26 26" fill="none" xmlns="http://www.w3.org/2000/svg">
<path d="M3.00079 10.8333C2.53496 10.8333 2.16663 10.465 2.16663 9.99913V7.49663C2.16663 4.56079 4.56079 2.16663 7.49663 2.16663H9.99913C10.465 2.16663 10.8333 2.53496 10.8333 3.00079C10.8333 3.46663 10.465 3.83496 9.99913 3.83496H7.49663C5.47079 3.83496 3.83496 5.48163 3.83496 7.49663V9.99913C3.83496 10.465 3.45579 10.8333 3.00079 10.8333Z" fill="white"/>
<path d="M22.9991 10.8333C22.5441 10.8333 22.165 10.465 22.165 9.99913V7.49663C22.165 5.47079 20.5183 3.83496 18.5033 3.83496H16.0008C15.535 3.83496 15.1666 3.45579 15.1666 3.00079C15.1666 2.54579 15.535 2.16663 16.0008 2.16663H18.5033C21.4391 2.16663 23.8333 4.56079 23.8333 7.49663V9.99913C23.8333 10.465 23.465 10.8333 22.9991 10.8333Z" fill="white"/>
<path d="M18.5033 23.8334H16.9975C16.5425 23.8334 16.1633 23.465 16.1633 22.9992C16.1633 22.5442 16.5317 22.165 16.9975 22.165H18.5033C20.5292 22.165 22.165 20.5184 22.165 18.5034V17.0084C22.165 16.5534 22.5333 16.1742 22.9992 16.1742C23.4542 16.1742 23.8333 16.5425 23.8333 17.0084V18.5034C23.8333 21.4392 21.4392 23.8334 18.5033 23.8334Z" fill="white"/>
<path d="M9.99913 23.8333H7.49663C4.56079 23.8333 2.16663 21.4391 2.16663 18.5033V16.0008C2.16663 15.535 2.53496 15.1666 3.00079 15.1666C3.46663 15.1666 3.83496 15.535 3.83496 16.0008V18.5033C3.83496 20.5291 5.48163 22.165 7.49663 22.165H9.99913C10.4541 22.165 10.8333 22.5333 10.8333 22.9991C10.8333 23.465 10.465 23.8333 9.99913 23.8333Z" fill="white"/>
<path d="M7.29059 14.488V10.6932C7.29059 9.68518 7.79459 9.18118 8.80259 9.18118H11.1151C12.1231 9.18118 12.6271 9.68518 12.6271 10.6932V14.4979C12.6271 15.4136 12.1955 15.9045 11.3325 15.9704L12.0045 17.2847L11.8958 17.4824H11.1941L10.4431 16H8.80259C7.79459 16 7.29059 15.496 7.29059 14.488ZM8.12071 14.5769C8.12071 15.0249 8.34471 15.2489 8.79271 15.2489H11.1249C11.5729 15.2489 11.7969 15.0249 11.7969 14.5769V10.6042C11.7969 10.1562 11.5729 9.93224 11.1249 9.93224H8.79271C8.34471 9.93224 8.12071 10.1562 8.12071 10.6042V14.5769ZM14.309 16V9.18118H17.5405C18.5485 9.18118 19.0525 9.68518 19.0525 10.6932V11.7802C19.0525 12.6367 18.6869 13.1242 17.9556 13.2428L19.2502 15.8024L19.1415 16H18.4398L17.0662 13.2922H15.1391V16H14.309ZM15.1391 12.5412H17.5504C17.9984 12.5412 18.2224 12.3172 18.2224 11.8692V10.6042C18.2224 10.1562 17.9984 9.93224 17.5504 9.93224H15.1391V12.5412Z" fill="white"/>
</svg>
